<svg xmlns="http://www.w3.org/2000/svg" version="1.0" width="705.000000pt" height="786.000000pt" viewBox="0 0 705.000000 786.000000" preserveAspectRatio="xMidYMid meet">

<g transform="translate(0.000000,786.000000) scale(0.100000,-0.100000)" fill="#00425f" stroke="none">
<path d="M4822 7820 c-24 -10 -140 -27 -262 -39 -41 -5 -136 -16 -210 -25 -74 -9 -227 -28 -340 -42 -113 -14 -286 -36 -385 -50 -325 -45 -665 -91 -962 -130 l-293 -38 -137 17 c-76 10 -164 17 -195 17 -71 0 -152 -29 -204 -74 l-40 -34 -344 -46 c-462 -63 -597 -83 -646 -96 -99 -28 -196 -146 -210 -256 -7 -57 6 -161 140 -1139 35 -256 184 -1392 246 -1885 17 -129 35 -257 40 -285 10 -47 34 -223 96 -705 19 -149 24 -224 19 -275 -7 -79 -42 -236 -54 -248 -5 -5 -56 -3 -115 4 -219 26 -458 -38 -618 -166 -110 -86 -196 -222 -240 -375 -22 -74 -22 -88 -25 -987 l-3 -913 22 -5 c13 -3 241 -4 508 -3 l485 3 5 319 c6 367 5 363 81 308 25 -18 80 -43 124 -57 88 -28 278 -52 283 -35 2 5 24 10 48 10 84 0 213 41 292 92 24 15 44 28 45 28 1 0 2 -150 2 -332 l0 -333 790 -3 c435 -1 800 0 813 3 l22 5 0 310 c0 178 4 311 9 315 5 3 25 -4 44 -15 65 -39 196 -80 285 -89 140 -16 297 11 415 70 32 17 65 28 73 25 12 -4 14 -58 14 -310 0 -268 2 -305 16 -310 20 -8 978 -8 998 0 10 4 16 18 16 40 0 20 6 37 13 40 8 3 54 -9 103 -25 161 -54 197 -56 839 -56 l590 0 3 508 2 507 -474 0 -475 0 -15 22 c-13 18 -16 54 -16 183 0 112 4 165 12 173 9 9 132 12 490 12 l478 0 -2 498 -3 497 -535 5 c-294 3 -536 6 -537 8 -10 9 69 339 237 982 27 107 97 380 154 605 96 375 198 777 356 1391 37 144 60 252 60 286 0 87 -24 150 -80 211 -56 62 -109 88 -244 123 -49 12 -93 27 -99 33 -8 8 -1 90 24 278 40 312 41 377 9 450 -24 56 -109 145 -157 164 -39 16 -505 85 -834 123 l-56 7 -17 132 c-33 252 -54 364 -79 414 -25 47 -67 95 -105 117 -92 54 -100 56 -184 55 -46 0 -93 -4 -106 -9z m252 -242 c19 -88 56 -422 48 -430 -10 -10 -263 20 -1112 132 -658 88 -648 86 -634 100 9 9 125 25 934 131 256 33 510 66 565 73 55 8 121 14 147 15 42 1 48 -2 52 -21z m-2814 -312 c146 -19 373 -49 505 -66 325 -41 1189 -155 1405 -184 96 -13 321 -43 500 -66 179 -22 408 -52 510 -65 102 -13 365 -47 585 -75 220 -28 410 -53 422 -55 32 -7 36 -37 19 -155 -8 -58 -24 -175 -35 -260 -28 -202 -27 -200 -53 -200 -17 0 -616 151 -1803 455 -115 30 -415 106 -665 170 -250 64 -606 155 -790 202 -371 94 -392 97 -493 50 -68 -31 -123 -86 -153 -151 -13 -28 -75 -256 -138 -506 -63 -250 -168 -660 -232 -910 -64 -250 -139 -543 -166 -650 -72 -289 -108 -423 -118 -445 -7 -17 -60 -254 -60 -271 0 -3 -5 -2 -10 1 -6 3 -8 16 -5 28 13 51 37 209 45 297 5 52 25 212 44 355 60 444 124 930 157 1180 133 1045 169 1319 175 1338 8 24 46 23 354 -17z m-555 -125 c5 -18 -50 -482 -80 -666 -15 -88 -23 -155 -105 -785 -22 -173 -49 -366 -60 -427 -10 -62 -26 -188 -36 -280 -15 -160 -65 -550 -140 -1098 -18 -137 -34 -276 -34 -307 0 -31 -4 -60 -10 -63 -5 -3 -10 3 -10 15 0 11 -4 28 -10 38 -5 9 -30 177 -55 372 -76 598 -125 970 -140 1075 -19 127 -93 675 -140 1040 -20 154 -54 413 -75 575 -59 453 -56 408 -29 414 13 3 132 19 264 36 132 17 317 42 410 54 221 30 242 31 250 7z m1506 -511 c453 -116 957 -245 1119 -286 162 -42 477 -122 700 -179 223 -57 558 -142 745 -190 187 -48 442 -113 568 -146 125 -32 229 -59 231 -59 18 0 8 -63 -40 -249 -30 -119 -98 -385 -150 -591 -53 -206 -123 -478 -156 -605 -33 -126 -117 -457 -188 -735 -154 -608 -290 -1133 -295 -1138 -2 -2 -39 -13 -82 -24 -99 -25 -209 -75 -296 -135 -98 -67 -101 -55 -32 118 107 267 177 506 239 809 76 373 85 828 25 1200 -55 342 -182 698 -338 950 -79 127 -168 236 -281 343 -186 177 -369 278 -615 339 -123 31 -432 33 -570 4 -198 -41 -421 -135 -601 -254 -252 -166 -518 -429 -719 -712 -134 -190 -277 -454 -375 -692 -96 -232 -210 -619 -240 -808 -68 -439 -78 -775 -34 -1121 l6 -47 -85 -56 c-47 -31 -113 -86 -147 -123 l-61 -67 -82 81 c-45 45 -108 97 -139 117 -31 20 -59 40 -63 45 -3 6 19 106 49 223 30 117 93 366 141 553 47 187 117 459 155 605 83 321 305 1189 441 1730 55 217 122 479 149 582 28 102 79 303 115 445 71 277 72 283 78 283 2 0 375 -95 828 -210z m1016 -775 c257 -42 463 -154 662 -361 588 -610 700 -1834 269 -2937 -28 -71 -57 -131 -65 -134 -8 -3 -61 9 -117 26 -149 48 -269 59 -401 38 -216 -35 -345 -98 -479 -236 -37 -39 -69 -71 -71 -71 -1 0 -42 39 -90 86 -76 74 -104 93 -199 139 -142 69 -234 90 -391 89 -99 0 -137 -5 -217 -27 -124 -34 -207 -72 -285 -131 l-63 -48 -62 47 c-81 61 -134 87 -238 119 -125 38 -220 49 -336 42 l-101 -7 -7 53 c-14 119 -18 496 -7 628 57 650 245 1213 575 1720 247 380 542 657 874 824 126 63 186 87 282 112 175 45 316 53 467 29z m-3175 -3716 c114 -38 193 -103 246 -204 17 -33 66 -197 138 -459 25 -93 53 -180 61 -193 18 -28 54 -30 76 -5 9 10 55 153 102 317 47 165 94 318 106 341 24 51 108 137 167 172 63 36 141 52 262 52 170 0 264 -34 352 -128 53 -56 84 -119 98 -193 6 -34 9 -315 8 -754 l-3 -700 -192 -3 -193 -2 -2 686 -3 686 -24 19 c-32 26 -82 25 -108 -3 -24 -26 -29 -42 -112 -313 -101 -335 -119 -372 -227 -476 -81 -77 -158 -103 -289 -97 -78 3 -101 8 -156 35 -125 62 -197 165 -264 378 -24 77 -67 213 -95 302 -53 171 -67 193 -121 193 -14 0 -38 -9 -53 -21 l-26 -20 -2 -682 -3 -682 -193 -3 -192 -2 2 742 3 743 23 57 c30 74 96 147 170 186 80 43 116 50 260 51 99 1 134 -3 184 -20z m2530 -18 c37 -18 85 -48 106 -67 77 -65 95 -109 191 -442 49 -175 97 -322 106 -333 23 -24 47 -24 68 -1 9 10 55 153 102 317 47 165 95 318 106 340 35 68 124 150 203 186 64 30 82 33 185 37 151 6 232 -9 313 -57 72 -43 127 -109 161 -191 l22 -55 3 -738 3 -737 -196 0 -195 0 0 680 0 681 -25 24 c-27 28 -70 33 -101 11 -25 -18 -44 -61 -82 -191 -134 -453 -143 -474 -240 -577 -99 -105 -171 -133 -321 -126 -74 3 -99 9 -153 36 -125 61 -194 164 -267 397 -22 72 -61 197 -87 279 -50 161 -72 196 -122 196 -17 0 -40 -9 -53 -19 l-24 -19 -5 -684 -5 -683 -193 -3 -193 -2 3 742 3 743 23 57 c43 107 147 194 267 225 32 8 102 11 190 10 136 -3 142 -4 207 -36z m3106 -173 l-3 -183 -405 -5 c-438 -5 -434 -5 -487 -62 -41 -44 -43 -66 -43 -443 0 -377 2 -399 43 -443 53 -57 49 -57 487 -62 l405 -5 3 -182 2 -183 -444 0 c-292 0 -463 4 -498 11 -125 27 -266 134 -327 249 -56 105 -61 150 -61 615 0 467 5 509 62 618 62 118 197 222 320 246 24 5 247 9 496 10 l452 1 -2 -182z" fill="#00425f"/>
<path d="M3734 3837 c-29 -26 -37 -42 -41 -80 -5 -44 -4 -49 36 -88 40 -40 43 -41 93 -37 70 7 108 47 108 114 0 40 -5 51 -39 85 -32 33 -45 39 -80 39 -33 0 -49 -7 -77 -33z" fill="#00425f"/>
<path d="M3189 3621 c-24 -24 -29 -38 -29 -76 0 -85 39 -125 121 -125 33 0 48 7 75 34 28 28 34 42 34 75 0 48 -21 96 -49 111 -11 5 -43 10 -71 10 -44 0 -56 -5 -81 -29z" fill="#00425f"/>
<path d="M4163 3416 c-78 -36 -84 -160 -9 -210 14 -9 45 -16 71 -16 38 0 52 5 76 29 25 26 29 37 29 88 0 52 -3 63 -29 87 -35 33 -92 42 -138 22z" fill="#00425f"/>
<path d="M3184 3016 c-29 -29 -34 -41 -34 -83 0 -55 17 -86 60 -108 53 -28 120 -11 154 37 9 13 16 43 16 71 0 42 -5 54 -34 83 -29 29 -41 34 -81 34 -40 0 -52 -5 -81 -34z" fill="#00425f"/>
<path d="M3888 2874 c-36 -19 -58 -63 -58 -115 0 -57 50 -109 107 -109 51 0 101 32 119 76 21 49 10 86 -37 128 -43 40 -84 46 -131 20z" fill="#00425f"/>
</g>
</svg>